<svg width="347" height="80" viewBox="0 0 347 80" fill="none" xmlns="http://www.w3.org/2000/svg">
<path fill-rule="evenodd" clip-rule="evenodd" d="M37.0059 73.9802C30.0614 73.9802 23.5572 72.057 17.9981 68.7165C24.3799 74.8025 33.0181 78.5425 42.5188 78.5425C62.1307 78.5425 78.0673 62.6059 78.0673 42.994C78.0673 34.6104 75.1493 26.8984 70.2785 20.8157C72.6693 25.7088 74.0119 31.2036 74.0119 37.0059C74.0119 57.4099 57.4099 74.0119 37.0059 74.0119V73.9802ZM0 37.0059C0 48.1037 4.92664 58.0826 12.7108 64.8684C19.4545 74.0199 30.3055 79.9683 42.5188 79.9683V79.9999C62.9228 79.9999 79.5247 63.398 79.5247 42.994C79.5247 31.8819 74.6007 21.8975 66.8202 15.1083C60.0769 5.95197 49.2229 0 37.0059 0C16.602 0 0 16.6337 0 37.0059ZM1.45743 37.0059C1.45743 45.4272 4.39583 53.1708 9.30187 59.266C6.8763 54.3445 5.51288 48.8095 5.51288 42.9623C5.51288 22.5584 22.1149 5.98809 42.5188 5.98809C49.4135 5.98809 55.8741 7.88376 61.4066 11.1812C55.0321 5.15556 46.4381 1.45743 37.0059 1.45743C17.3941 1.45743 1.45743 17.3941 1.45743 37.0059ZM6.97031 42.994C6.97031 50.8055 9.4986 58.0339 13.7804 63.9045C20.0131 69.2927 28.1334 72.5544 37.0059 72.5544C56.6178 72.5544 72.5544 56.6178 72.5544 37.0059C72.5544 29.1984 70.0237 21.9734 65.7418 16.1044C59.5049 10.7109 51.3819 7.44552 42.5188 7.44552C22.9069 7.44552 6.97031 23.3821 6.97031 42.994ZM34.7564 20.1188C34.0594 20.1188 33.5525 20.2138 33.2673 20.4039V20.4356C32.9505 20.6257 32.7921 20.9742 32.7921 21.4495V36.594C32.7921 37.1327 32.9188 37.4812 33.1723 37.6713C33.4257 37.893 33.8693 37.9881 34.5663 37.9881C35.2634 37.9881 35.802 37.8614 36.1188 37.6713C36.4673 37.4495 36.6257 37.101 36.6257 36.594V31.1762C36.6257 30.7327 36.7842 30.3525 37.101 30.0673C37.4178 29.8138 37.798 29.6871 38.2416 29.6871H41.2198C41.695 29.6871 42.0436 29.8138 42.3287 30.0673C42.6139 30.3208 42.7723 30.701 42.7723 31.1762V36.5624C42.7723 37.0693 42.9307 37.4178 43.2475 37.6396C43.5327 37.8614 43.9762 37.9564 44.7049 37.9564C45.4337 37.9564 45.9406 37.8297 46.2257 37.6396C46.5426 37.4178 46.701 37.0693 46.701 36.5624V21.4178C46.701 20.9742 46.5109 20.6257 46.1624 20.4039C45.8455 20.2138 45.3386 20.1188 44.7366 20.1188C44.1346 20.1188 43.6594 20.2138 43.3426 20.4039C42.9941 20.6257 42.8356 20.9426 42.8356 21.4178V25.8218C42.8356 26.2336 42.7089 26.5822 42.4238 26.8356C42.1703 27.0891 41.8218 27.2158 41.4099 27.2158H38.2099C37.7347 27.2158 37.3861 27.0891 37.101 26.8356C36.8158 26.5822 36.6891 26.2653 36.6891 25.8218V21.4178C36.6891 20.9426 36.5307 20.594 36.2455 20.4039C35.9604 20.2138 35.4535 20.1188 34.7564 20.1188ZM37.8613 57.8535C37.8613 57.3148 37.7663 56.7445 37.5762 56.1426C37.4177 55.6356 37.196 55.1921 36.9742 54.8119L32.5385 47.5247C32.2851 47.1445 32.3168 46.8277 32.6019 46.5426C32.9187 46.2574 33.4257 46.1307 34.1861 46.1307C34.8197 46.1307 35.2633 46.1624 35.5484 46.2574C35.897 46.3525 36.1821 46.6059 36.4039 46.9861C36.5652 47.2483 36.7394 47.5489 36.9263 47.8717L36.9266 47.8722L36.9267 47.8723L36.9269 47.8727C37.0336 48.0568 37.1444 48.2481 37.2593 48.4436C37.322 48.5585 37.3951 48.6976 37.4796 48.8585C37.6513 49.1855 37.8704 49.6027 38.1465 50.0911L39.0653 51.7386C39.192 52.0237 39.3187 52.2454 39.4454 52.4672L39.4454 52.4673L39.4455 52.4673C39.5722 52.6891 39.6989 52.7841 39.7623 52.7841C39.8257 52.7841 39.9207 52.6891 40.0791 52.4673C40.1037 52.4182 40.1377 52.3549 40.1794 52.2774L40.1795 52.2772L40.1795 52.2771C40.2455 52.1544 40.3306 51.996 40.4277 51.802H40.491C41.0296 50.6948 41.4835 49.8702 41.8258 49.2482L41.8851 49.1406C42.297 48.4119 42.7405 47.6832 43.1524 47.0178C43.3108 46.701 43.5643 46.4792 43.9128 46.3525C44.2613 46.2257 44.7682 46.1307 45.4336 46.1307C46.1306 46.1307 46.6059 46.2891 46.8276 46.5742C47.0494 46.8594 47.0177 47.1762 46.7643 47.5247C46.3609 48.1892 45.8864 49.0135 45.3275 49.9845L45.3273 49.9849C45.14 50.3103 44.9433 50.6521 44.7366 51.0099C44.3937 51.6041 43.9684 52.3962 43.4369 53.3862C43.2317 53.7685 43.0105 54.1804 42.7722 54.6218L42.5821 55.0337C42.3287 55.5088 42.1386 55.889 41.9802 56.2058L41.9801 56.2059C41.79 56.7445 41.695 57.2832 41.695 57.8218V62.701C41.695 63.1129 41.5366 63.4297 41.2197 63.6198C40.9029 63.8416 40.396 63.9366 39.6989 63.9366C39.0019 63.9366 38.4633 63.8416 38.1465 63.6198C37.8613 63.4297 37.7029 63.1129 37.7029 62.6693V57.8218L37.8613 57.8535ZM32.2534 42.3604H47.2712C47.8098 42.3604 48.2534 41.9168 48.2534 41.3782C48.2534 40.8396 47.8098 40.396 47.2712 40.396H32.2534C31.7148 40.396 31.2712 40.8396 31.2712 41.3782C31.2712 41.9168 31.7148 42.3604 32.2534 42.3604ZM125.689 55.7219C125.128 56.4282 124.264 56.7813 123.098 56.7813C122.04 56.7813 121.284 56.4503 120.831 55.7881C120.42 55.2364 120.204 54.4418 120.204 53.4266V42.5898C120.204 42.1263 120.14 41.7511 120.01 41.4862C119.88 41.1993 119.708 41.0448 119.513 41.0448C119.276 41.0448 119.06 41.1331 118.865 41.3097C118.693 41.5304 118.563 41.7731 118.52 42.0601C117.959 44.8189 116.728 46.9157 114.849 48.3282C113.186 49.6083 111.135 50.2483 108.716 50.2483C106.147 50.2483 103.858 49.189 101.849 47.0922C99.5821 44.7086 98.4592 41.5966 98.4592 37.8004C98.4592 36.1009 98.6104 34.4677 98.9127 32.9448C99.107 32.084 99.4309 31.0246 99.8412 29.7887C99.8817 29.6699 99.9197 29.5595 99.9549 29.4576L99.955 29.4572L99.9551 29.4571C100.07 29.124 100.154 28.8813 100.187 28.7293C100.295 28.4203 100.338 28.1554 100.338 27.9347C100.338 27.7802 100.316 27.6257 100.252 27.4712C100.208 27.3609 100.144 27.2064 100.057 27.0077C99.9944 26.8409 99.9462 26.6889 99.9041 26.5563L99.904 26.556L99.9039 26.5555C99.8737 26.4604 99.8467 26.3752 99.8196 26.3015C99.7333 26.0146 99.7117 25.7056 99.7117 25.3524C99.7117 24.7786 100.014 24.3592 100.64 24.0944C101.18 23.8516 101.936 23.7413 102.908 23.7413C103.534 23.7413 104.074 23.5868 104.57 23.2998C104.873 23.1233 105.24 22.7922 105.693 22.3067C106.211 21.799 106.6 21.468 106.881 21.2914C107.399 20.9824 108.004 20.8279 108.695 20.8279C109.386 20.8279 110.034 20.9824 110.595 21.2914C110.897 21.468 111.329 21.8211 111.869 22.3067C112.323 22.7701 112.733 23.1012 113.057 23.2998C113.575 23.5868 114.158 23.7413 114.827 23.7413C115.691 23.7413 116.425 23.8737 116.987 24.1385C117.613 24.4255 117.915 24.8448 117.915 25.3524C117.915 25.6394 117.872 25.9042 117.807 26.147C117.764 26.2794 117.678 26.456 117.57 26.6546C117.545 26.732 117.519 26.8018 117.498 26.8596L117.498 26.8598L117.498 26.8601L117.477 26.9185L117.466 26.9516L117.462 26.9636L117.462 26.9637C117.44 27.074 117.419 27.1844 117.419 27.3167C117.419 27.6037 117.591 27.8464 117.915 28.0672C118.261 28.2879 118.585 28.3761 118.909 28.3761C119.319 28.3761 119.621 28.2879 119.837 28.1113C120.075 27.9347 120.183 27.6037 120.183 27.1622V24.8669C120.183 23.8958 120.485 23.1012 121.111 22.5053C121.694 21.9535 122.428 21.6666 123.314 21.6666C124.134 21.6666 124.847 21.9535 125.43 22.5274C126.099 23.1233 126.423 23.8958 126.423 24.8227V53.1838C126.423 54.2432 126.164 55.0598 125.646 55.6557L125.689 55.7219ZM111.804 30.186C111.07 28.1113 110.034 27.074 108.716 27.074C107.399 27.074 106.341 28.1113 105.585 30.186C104.916 32.0399 104.592 34.4015 104.592 37.2266C104.592 40.0516 104.916 42.1704 105.585 43.8919C106.298 45.79 107.334 46.7391 108.716 46.7391C110.098 46.7391 111.048 45.79 111.804 43.8919C112.474 42.1925 112.798 39.9633 112.798 37.2266C112.798 34.4898 112.452 32.0399 111.804 30.186ZM120.204 33.1876C120.204 32.9007 120.053 32.6579 119.772 32.4372C119.535 32.2827 119.276 32.1944 118.995 32.1944C118.714 32.1944 118.542 32.3048 118.455 32.5034C118.369 32.68 118.369 32.9669 118.455 33.3642L118.542 33.8718C118.628 34.3353 118.671 34.7325 118.693 35.0195C118.714 35.2512 118.741 35.4885 118.768 35.7257C118.795 35.963 118.822 36.2003 118.844 36.432C118.865 36.6968 118.93 36.8955 119.038 37.0279C119.146 37.1824 119.276 37.2707 119.47 37.2707C119.708 37.2707 119.88 37.1603 120.01 36.9617C120.14 36.7189 120.204 36.4099 120.204 35.9685V33.1876ZM133.701 55.8102C133.139 56.4723 132.318 56.8034 131.239 56.8034C130.159 56.8034 129.274 56.4944 128.734 55.8543C128.28 55.3026 128.043 54.5301 128.043 53.5369V24.911C128.043 23.984 128.28 23.2336 128.734 22.6598C129.295 22.0197 130.138 21.7107 131.239 21.7107C132.34 21.7107 133.139 22.0418 133.701 22.7039C134.197 23.2998 134.435 24.1165 134.435 25.1538V53.3603C134.435 54.4197 134.197 55.2143 133.701 55.8102ZM173.298 42.4486C174.13 42.4486 174.812 42.2363 175.344 41.8328L175.323 41.8116C175.835 41.4506 176.09 41.0471 176.09 40.6012C176.09 40.0703 175.835 39.6244 175.323 39.3059C174.812 38.9449 174.151 38.775 173.341 38.775H144.929C144.097 38.775 143.394 38.9449 142.84 39.3059C142.286 39.6669 142.008 40.1128 142.008 40.6224C142.008 41.0684 142.243 41.4718 142.691 41.7903C143.223 42.215 143.927 42.4062 144.822 42.4062H149.469C149.938 42.4062 150.236 42.6185 150.385 43.0432C150.47 43.2556 150.492 43.659 150.47 44.2111V44.5084C150.47 44.8906 150.193 45.1455 149.639 45.2729C149.277 45.379 148.68 45.4215 147.849 45.4215H147.699C146.826 45.4215 146.143 45.7188 145.653 46.3346C145.206 46.9504 144.971 47.7149 144.971 48.6492V53.236C144.971 54.3614 145.334 55.232 146.08 55.8479C146.804 56.4849 147.806 56.8034 149.128 56.8034H170.996C171.828 56.8034 172.488 56.6548 172.936 56.3787C173.49 56.0602 173.767 55.5506 173.767 54.9772C173.767 54.4039 173.447 53.958 172.808 53.6607C172.275 53.3846 171.657 53.236 170.954 53.236H154.776C153.753 53.236 152.985 53.0873 152.453 52.79C151.92 52.4927 151.664 52.0043 151.664 51.3461V50.2843C151.664 49.7959 152.005 49.3924 152.687 49.1164C153.263 48.9253 153.859 48.8191 154.52 48.8191C155.309 48.8191 155.863 48.6492 156.225 48.2882C156.609 47.9272 156.801 47.3114 156.801 46.462L156.758 45.4852C156.758 44.381 156.779 43.6378 156.865 43.2556C156.993 42.7034 157.291 42.4274 157.739 42.4274H161.767C162.193 42.4274 162.47 42.7459 162.598 43.4042C162.705 43.8077 162.748 44.5721 162.748 45.6763V46.101C162.748 46.9717 163.025 47.6299 163.579 48.1183C164.112 48.628 164.836 48.8828 165.796 48.8828C166.755 48.8828 167.543 48.6492 168.119 48.1608C168.758 47.6724 169.078 46.9929 169.078 46.1223C169.078 44.8694 169.099 43.9988 169.185 43.5528C169.312 42.8096 169.611 42.4486 170.058 42.4486H173.298ZM159.103 37.2673C163.728 37.2673 167.352 36.5241 169.973 35.0376C172.36 33.7211 173.554 32.0648 173.554 30.0262C173.554 27.9876 172.36 26.2889 169.973 24.9511C167.352 23.4646 163.792 22.7214 159.103 22.7214C154.414 22.7214 150.747 23.4646 148.104 24.9511C145.739 26.2889 144.566 27.9876 144.566 30.0262C144.566 32.0648 145.739 33.7211 148.104 35.0376C150.747 36.5241 154.478 37.2673 159.103 37.2673ZM159.081 26.119C161.341 26.119 163.131 26.5012 164.453 27.2232C165.689 27.9239 166.307 28.8795 166.307 30.0262C166.307 31.1729 165.689 32.086 164.453 32.7655C163.153 33.5087 161.383 33.8697 159.081 33.8697C156.779 33.8697 154.989 33.4875 153.689 32.7655C152.453 32.0648 151.835 31.1941 151.835 30.0262C151.835 28.8583 152.453 27.9239 153.689 27.2232C154.968 26.48 156.822 26.119 159.081 26.119ZM200.923 23.3057C201.881 23.522 202.568 23.9116 202.922 24.4958C203.88 25.9889 205.087 28.8237 206.524 33.0001C207.856 36.8086 208.522 39.0808 208.522 39.7949C208.522 40.2926 208.377 40.6821 208.085 40.985C207.71 41.3745 207.148 41.5693 206.378 41.5693C205.108 41.5693 204.213 41.4611 203.671 41.2663C202.86 40.9634 202.277 40.3791 201.964 39.5352C201.173 36.549 200.549 34.3201 200.111 32.8486C199.612 31.1391 199.175 29.8624 198.821 29.0185C198.425 28.1962 198.029 27.6335 197.634 27.3089C197.322 27.0493 196.884 26.9194 196.343 26.9194C195.802 26.9194 195.323 27.0276 194.969 27.2657C194.594 27.547 194.22 28.1096 193.824 28.9319C193.428 29.7542 192.929 31.0309 192.346 32.7621C191.909 34.1037 191.201 36.3542 190.222 39.5136C189.91 40.3575 189.327 40.9418 188.474 41.2447C187.911 41.4611 187.016 41.5477 185.829 41.5477C185.018 41.5477 184.435 41.3529 184.081 40.9634C183.81 40.6604 183.664 40.2493 183.664 39.7732C183.664 39.1024 184.372 36.8303 185.788 32.9785C187.328 28.8021 188.578 25.9673 189.577 24.4742C189.973 23.825 190.701 23.4138 191.763 23.1975C192.596 23.046 194.136 22.9594 196.343 22.9594C198.55 22.9594 200.007 23.0676 200.944 23.2624L200.923 23.3057ZM190.993 44.6637C191.638 43.9929 192.471 43.6683 193.512 43.6683C194.553 43.6683 195.302 43.9713 195.843 44.5988C196.364 45.1831 196.614 45.9837 196.614 47.0008V50.7877C196.614 51.6749 196.884 52.2808 197.426 52.6487C197.905 52.9733 198.633 53.1464 199.653 53.1464H213.29C213.998 53.1464 214.622 53.2978 215.143 53.5792C215.767 53.9254 216.08 54.3798 216.08 54.9641C216.08 55.5483 215.83 56.046 215.309 56.349C214.831 56.6519 214.206 56.8034 213.415 56.8034H194.282C192.991 56.8034 191.971 56.4788 191.242 55.8297C190.493 55.1805 190.118 54.2933 190.118 53.168V47.0657C190.118 46.1136 190.41 45.3129 190.972 44.6637H190.993ZM210.021 23.6086C210.563 23.0243 211.312 22.7214 212.249 22.7214C213.186 22.7214 213.977 22.9811 214.581 23.5437C215.247 24.1279 215.58 24.9502 215.58 26.0106C215.58 27.0709 215.83 27.8066 216.35 28.3693C216.642 28.7371 217.183 29.0834 217.995 29.4512C218.536 29.7109 218.911 29.9273 219.119 30.1004C219.473 30.4034 219.64 30.7929 219.64 31.2689C219.64 31.7883 219.473 32.1994 219.119 32.5024C218.911 32.7188 218.557 32.9568 217.995 33.2381C217.204 33.6493 216.663 34.0388 216.35 34.4067C215.83 35.0558 215.58 35.9431 215.58 37.0683V43.6034C215.58 44.5988 215.247 45.4211 214.622 46.0703C214.019 46.6546 213.29 46.9575 212.395 46.9575C211.437 46.9575 210.667 46.6978 210.084 46.1785C209.522 45.6375 209.23 44.9234 209.23 44.0145V25.9457C209.23 24.9935 209.48 24.2145 210.001 23.6302L210.021 23.6086ZM230.134 42.3992C229.26 42.3992 228.556 42.5735 228.002 42.944L228.024 42.9876C227.469 43.3362 227.214 43.7938 227.214 44.3386C227.214 44.7963 227.448 45.1885 227.896 45.5372C228.407 45.9294 229.089 46.1255 229.984 46.1255H238.084C239.15 46.1255 239.917 46.3435 240.365 46.7793C240.791 47.2151 241.004 47.9342 241.004 48.9149V54.0795C241.004 54.8422 241.281 55.4523 241.814 55.9536C242.411 56.5201 243.2 56.8034 244.18 56.8034C245.224 56.8034 246.034 56.5201 246.652 55.9753C247.228 55.4741 247.526 54.8422 247.526 54.1013V48.8931C247.526 47.8907 247.718 47.1715 248.102 46.7575C248.528 46.3217 249.274 46.1038 250.34 46.1038H258.439C259.292 46.1038 259.995 45.9076 260.528 45.5154C261.04 45.1449 261.296 44.7309 261.296 44.2297C261.296 43.6849 261.04 43.2273 260.528 42.9004C260.017 42.5735 259.356 42.3992 258.546 42.3992H230.134ZM233.544 22.7214C232.542 22.7214 231.732 23.0265 231.114 23.6584C230.475 24.2904 230.155 25.1403 230.155 26.2298V36.3411C230.155 37.2128 230.453 37.9537 231.029 38.5203C231.711 39.1522 232.67 39.4573 233.885 39.4573H254.283C255.455 39.4573 256.415 39.1522 257.182 38.5203C257.949 37.9101 258.333 37.1474 258.333 36.2322V26.2298C258.333 25.0313 257.992 24.1378 257.31 23.5495C256.67 22.9829 255.818 22.7214 254.752 22.7214C253.942 22.7214 253.239 22.8739 252.621 23.2226C251.981 23.6148 251.661 24.1161 251.661 24.7044C251.661 25.4235 251.406 25.9683 250.873 26.3388C250.404 26.6657 249.722 26.84 248.827 26.84H239.576C238.702 26.84 238.041 26.6657 237.594 26.3388C237.082 25.9683 236.826 25.4453 236.826 24.748C236.826 24.1161 236.507 23.6366 235.867 23.2662C235.249 22.8957 234.482 22.7214 233.544 22.7214ZM239.533 35.8399C238.66 35.8399 237.999 35.622 237.551 35.208V35.2298C237.061 34.7721 236.826 34.053 236.826 33.0942C236.826 32.1789 237.061 31.5034 237.551 31.0676C238.02 30.6753 238.723 30.4792 239.64 30.4792H249.189C250.02 30.4792 250.617 30.6535 251.022 31.024C251.448 31.438 251.661 32.1136 251.661 33.007C251.661 33.9005 251.448 34.5978 251.022 35.099C250.553 35.6002 249.892 35.8399 249.04 35.8399H239.533ZM288.696 38.6678C286.641 40.5565 283.803 41.5009 280.223 41.5009C276.643 41.5009 273.784 40.5565 271.708 38.6678C269.823 36.9294 268.869 34.7617 268.869 32.1433C268.869 29.5249 269.823 27.2928 271.708 25.5544C273.762 23.6657 276.601 22.7214 280.223 22.7214C283.845 22.7214 286.62 23.6657 288.696 25.5544C290.581 27.2928 291.534 29.482 291.534 32.1433C291.534 34.8046 290.581 36.9294 288.696 38.6678ZM283.972 28.0655C283.061 26.9494 281.812 26.37 280.223 26.37C278.634 26.37 277.427 26.928 276.516 28.0655C275.69 29.1386 275.266 30.5122 275.266 32.1648C275.266 33.8174 275.69 35.148 276.516 36.1997C277.427 37.3586 278.656 37.9167 280.223 37.9167C281.79 37.9167 283.061 37.3372 283.972 36.1997C284.798 35.148 285.222 33.8174 285.222 32.1648C285.222 30.5122 284.798 29.1386 283.972 28.0655ZM301.998 56.3742C301.448 56.6532 300.685 56.8034 299.689 56.8034H279.799C278.486 56.8034 277.469 56.4815 276.77 55.8376C276.029 55.2152 275.669 54.3353 275.669 53.1978V47.5317C275.669 46.5874 275.944 45.7933 276.537 45.1494C277.173 44.5056 278.02 44.1836 279.079 44.1836C280.138 44.1836 280.922 44.4841 281.494 45.0636C282.045 45.6431 282.32 46.4586 282.32 47.4674V50.8369C282.32 51.674 282.574 52.2964 283.104 52.6827C283.612 53.0046 284.375 53.1763 285.413 53.1763H300.155C300.897 53.1763 301.511 53.3265 302.041 53.6056C302.655 53.9275 302.951 54.3782 302.951 54.9362C302.951 55.5586 302.612 56.0308 301.977 56.3527L301.998 56.3742ZM301.85 45.7289C301.299 46.4586 300.367 46.8449 299.096 46.8449C297.995 46.8449 297.19 46.4801 296.681 45.7718C296.279 45.2138 296.067 44.4626 296.067 43.5183V26.3485C296.067 25.49 296.3 24.7388 296.745 24.1164C297.296 23.3867 298.122 23.0004 299.245 23.0004C300.24 23.0004 301.066 23.3223 301.659 23.9662C302.231 24.6101 302.528 25.4686 302.528 26.5631V43.0676C302.528 44.248 302.295 45.128 301.85 45.7075V45.7289ZM344.025 33.8818C344.823 33.6671 345.389 33.4525 345.683 33.2379H345.746C346.249 32.9374 346.501 32.4867 346.501 31.8643C346.501 31.4136 346.249 31.0058 345.787 30.6839C345.515 30.5122 345.053 30.2976 344.403 30.04L343.648 29.7825C343.144 29.5464 342.767 29.1386 342.494 28.5591C342.2 27.8079 342.054 26.7348 342.054 25.3398C342.054 24.5028 341.676 23.8374 340.921 23.3438C340.312 22.936 339.62 22.7214 338.823 22.7214C337.816 22.7214 337.04 22.9789 336.495 23.494C335.949 24.052 335.677 24.8891 335.677 25.9837V41.8013C335.677 42.9603 335.425 43.8402 334.921 44.3983C334.418 45.0207 333.621 45.3211 332.488 45.3211H323.195C322.545 45.3211 322.042 44.9992 321.664 44.3553C321.307 43.7544 321.14 43.0247 321.14 42.1662V37.2728C321.14 36.3928 320.888 35.6846 320.384 35.1266C319.818 34.5685 319.126 34.2895 318.203 34.2895C317.28 34.2895 316.546 34.59 316 35.1695C315.497 35.706 315.245 36.3928 315.245 37.2299V42.295C315.245 43.1749 315.098 43.8832 314.805 44.4412C314.469 45.0207 314.049 45.3211 313.525 45.3211H312.623C311.973 45.3211 311.448 45.5143 311.05 45.9006C310.693 46.2655 310.525 46.7162 310.525 47.2313C310.525 47.7249 310.735 48.1327 311.155 48.4546C311.574 48.8195 312.14 48.9912 312.833 48.9912H332.446C333.411 48.9912 334.187 49.2916 334.796 49.8711C335.341 50.4506 335.614 51.2018 335.614 52.1247V53.8846C335.614 54.8504 335.886 55.5801 336.474 56.0737C337.019 56.5673 337.795 56.8034 338.76 56.8034C339.935 56.8034 340.774 56.503 341.298 55.8806C341.739 55.344 341.97 54.5499 341.97 53.4982V35.8348C341.97 35.4485 342.138 35.0836 342.494 34.7188C342.851 34.3539 343.249 34.1178 343.69 33.9891L344.025 33.8818ZM329.698 42.9817C330.747 42.9817 331.544 42.7027 332.09 42.1662L332.111 42.2091C332.656 41.6725 332.929 40.9214 332.929 39.977V27.5933C332.929 26.1553 332.572 25.1252 331.838 24.4813C331.146 23.9018 330.013 23.6013 328.44 23.6013H312.896C312.203 23.6013 311.658 23.816 311.238 24.2237C310.861 24.5671 310.693 24.9749 310.714 25.4042C310.714 25.7905 310.882 26.1553 311.238 26.5202C311.658 26.9709 312.224 27.207 312.959 27.207H323.216C324.391 27.207 325.272 27.4645 325.88 28.0011C326.426 28.5162 326.698 29.2674 326.698 30.2332V40.1058C326.698 40.9858 326.929 41.6725 327.412 42.1662C327.915 42.7242 328.649 42.9817 329.698 42.9817Z" fill="white"/>
</svg>
